# xmcd
#
# Track frame offsets:
#	150
#	14442
#	27440
#	45480
#	61055
#	74685
#	91272
#	104515
#	121925
#	137200
#	153167
#	169237
#	183092
#	198877
#
# Disc length: 2916 seconds
#
# Revision: 0
# Processed by: cddbd v1.5.2PL0 Copyright (c) Steve Scherf et al.
# Submitted via: audiograbber 1.81.02
#
DISCID=b80b620e
DTITLE=MISSORA HIBARI - VOLUME04
DYEAR=1900
DGENRE=Blues
TTITLE0=OOSHOO
TTITLE1=OSASHIKI KOUTA
TTITLE2=KANTOU HARUSSAME UTA
TTITLE3=HADAKA NENBUTSU WA OIWANO UE 
TTITLE4=MUDYO NO YUME
TTITLE5=SHIRETOKO LYOODYO
TTITLE6=TABINO YOKAZE
TTITLE7=YUGI MA NO SHIRA UME
TTITLE8=MINATO NO HANAYOMESAM
TTITLE9=KIMI NO NAWA
TTITLE10=OFUKUROSAM
TTITLE11=KOKO NI SATIARI
TTITLE12=SENDOU KAWAII YA
TTITLE13=EDIGODISHI NO UTA
EXTD=KIROIVA@HOTMAIL.COM
EXTT0=
EXTT1=
EXTT2=
EXTT3=
EXTT4=
EXTT5=
EXTT6=
EXTT7=
EXTT8=
EXTT9=
EXTT10=
EXTT11=
EXTT12=
EXTT13=
PLAYORDER=
